<?xml version="1.0" encoding="UTF-8" standalone="no"?>
<!-- Created with Inkscape (http://www.inkscape.org/) -->

<svg
   xmlns:dc="http://purl.org/dc/elements/1.1/"
   xmlns:cc="http://creativecommons.org/ns#"
   xmlns:rdf="http://www.w3.org/1999/02/22-rdf-syntax-ns#"
   xmlns:svg="http://www.w3.org/2000/svg"
   xmlns="http://www.w3.org/2000/svg"
   xmlns:sodipodi="http://sodipodi.sourceforge.net/DTD/sodipodi-0.dtd"
   xmlns:inkscape="http://www.inkscape.org/namespaces/inkscape"
   width="256"
   height="256"
   viewBox="0 0 67.733332 67.733335"
   version="1.1"
   id="svg3719"
   inkscape:version="0.92.3 (2405546, 2018-03-11)"
   sodipodi:docname="boom.svg">
  <defs
     id="defs3713" />
  <sodipodi:namedview
     id="base"
     pagecolor="#ffffff"
     bordercolor="#666666"
     borderopacity="1.0"
     inkscape:pageopacity="0.0"
     inkscape:pageshadow="2"
     inkscape:zoom="1.979899"
     inkscape:cx="223.86244"
     inkscape:cy="102.85714"
     inkscape:document-units="mm"
     inkscape:current-layer="layer1"
     showgrid="false"
     units="px"
     showguides="true"
     inkscape:lockguides="true"
     inkscape:window-width="1440"
     inkscape:window-height="840"
     inkscape:window-x="0"
     inkscape:window-y="35"
     inkscape:window-maximized="1" />
  <metadata
     id="metadata3716">
    <rdf:RDF>
      <cc:Work
         rdf:about="">
        <dc:format>image/svg+xml</dc:format>
        <dc:type
           rdf:resource="http://purl.org/dc/dcmitype/StillImage" />
        <dc:title></dc:title>
      </cc:Work>
    </rdf:RDF>
  </metadata>
  <g
     inkscape:label="Layer 1"
     inkscape:groupmode="layer"
     id="layer1"
     transform="translate(0,-229.26664)">
    <path
       style="fill:none;fill-rule:evenodd;stroke:#000000;stroke-width:0.26458332px;stroke-linecap:butt;stroke-linejoin:miter;stroke-opacity:1"
       d="M 0.26726952,263.34079 68.287363,263.47442"
       id="path3734"
       inkscape:connector-type="polyline"
       inkscape:connector-curvature="3" />
    <path
       style="fill:none;fill-rule:evenodd;stroke:#000000;stroke-width:0.26458332px;stroke-linecap:butt;stroke-linejoin:miter;stroke-opacity:1"
       d="m 34.133934,229.47414 0.801806,68.15373"
       id="path3736"
       inkscape:connector-type="polyline"
       inkscape:connector-curvature="3" />
    <path
       sodipodi:type="star"
       style="fill:#ff0000;stroke-width:0.26458332"
       id="path3753"
       sodipodi:sides="8"
       sodipodi:cx="16.83798"
       sodipodi:cy="245.01606"
       sodipodi:r1="13.423477"
       sodipodi:r2="6.7117386"
       sodipodi:arg1="0.81355973"
       sodipodi:arg2="1.2062588"
       inkscape:flatsided="false"
       inkscape:rounded="0"
       inkscape:randomized="0"
       d="m 26.058779,254.77141 -6.827948,-3.48464 -2.770827,7.14745 -2.364079,-7.2921 -7.0132824,3.09475 3.4846354,-6.82795 -7.1474523,-2.77083 7.2920983,-2.36408 -3.0947423,-7.01328 6.8279483,3.48464 2.770826,-7.14746 2.364079,7.2921 7.013283,-3.09474 -3.484636,6.82795 7.147453,2.77082 -7.292098,2.36408 z" />
    <path
       sodipodi:type="star"
       style="fill:#ff0000;stroke-width:0.26458332"
       id="path3753-3"
       sodipodi:sides="8"
       sodipodi:cx="51.182115"
       sodipodi:cy="244.88241"
       sodipodi:r1="13.423477"
       sodipodi:r2="6.7117386"
       sodipodi:arg1="0.81355973"
       sodipodi:arg2="1.2062588"
       inkscape:flatsided="false"
       inkscape:rounded="0"
       inkscape:randomized="0"
       d="m 60.402912,254.63775 -6.827948,-3.48463 -2.770827,7.14745 -2.364078,-7.2921 -7.013283,3.09474 3.484636,-6.82794 -7.147453,-2.77083 7.292098,-2.36408 -3.094742,-7.01328 6.827948,3.48463 2.770827,-7.14745 2.364079,7.2921 7.013282,-3.09474 -3.484636,6.82795 7.147453,2.77082 -7.292098,2.36408 z" />
    <path
       sodipodi:type="star"
       style="fill:#ffff00;stroke-width:0.26458332"
       id="path3776"
       sodipodi:sides="8"
       sodipodi:cx="53.213039"
       sodipodi:cy="244.54744"
       sodipodi:r1="10.244654"
       sodipodi:r2="5.1223269"
       sodipodi:arg1="1.0370881"
       sodipodi:arg2="1.4297872"
       inkscape:flatsided="false"
       inkscape:rounded="0"
       inkscape:randomized="0"
       d="m 58.424795,253.36733 -4.491852,-3.74841 -3.271242,4.85039 -0.525695,-5.82674 -5.742861,1.11662 3.748408,-4.49185 -4.850388,-3.27124 5.826743,-0.5257 -1.116625,-5.74286 4.491853,3.74841 3.271242,-4.85039 0.525695,5.82675 5.74286,-1.11663 -3.748408,4.49185 4.850389,3.27125 -5.826744,0.52569 z" />
    <path
       sodipodi:type="star"
       style="fill:#ffff00;stroke-width:0.26458332"
       id="path3784"
       sodipodi:sides="8"
       sodipodi:cx="16.57071"
       sodipodi:cy="280.16198"
       sodipodi:r1="13.71759"
       sodipodi:r2="6.8587947"
       sodipodi:arg1="0.73715932"
       sodipodi:arg2="1.1298584"
       inkscape:flatsided="false"
       inkscape:rounded="0"
       inkscape:randomized="0"
       d="m 26.726953,289.38278 -7.228993,-3.01803 -2.265787,7.49887 -2.977601,-7.24574 -6.9046547,3.70035 3.0180287,-7.22899 -7.4988699,-2.26579 7.2457389,-2.9776 -3.7003492,-6.90465 7.2289932,3.01802 2.265786,-7.49887 2.977601,7.24574 6.904655,-3.70035 -3.018029,7.229 7.49887,2.26578 -7.245738,2.9776 z" />
    <path
       style="fill:#241f1c;stroke-width:0.26458332"
       id="path3794"
       d="m 82.99076,262.381 c 0,0.79818 0,1.59638 0,2.39457 0,0.67565 0,1.3513 0,2.02695 -2.64e-4,0.2536 -0.0068,0.50627 0.01598,0.75892 0,0 -0.0071,0.004 -0.0071,0.004 v 0 c -0.02283,-0.25267 -0.0163,-0.50536 -0.01601,-0.75898 0,-0.67565 0,-1.3513 0,-2.02695 0,-0.79819 0,-1.59638 0,-2.39458 0,0 0.0071,-0.004 0.0071,-0.004 z"
       inkscape:connector-curvature="0" />
    <path
       style="fill:#241c1c;stroke-width:0.26458332"
       id="path3796"
       d="m 84.383802,265.76877 c 0.495885,-0.83056 1.087189,-1.59635 1.680382,-2.35832 0.875565,-1.05006 1.669182,-2.16413 2.487038,-3.25884 0.482434,-0.66001 0.922227,-1.34939 1.39382,-2.01698 0,0 0.0074,-0.003 0.0074,-0.003 v 0 c -0.471615,0.66759 -0.911397,1.35698 -1.39381,2.01701 -0.817853,1.09471 -1.61146,2.2088 -2.487033,3.25885 -0.593195,0.76195 -1.184555,1.5277 -1.680405,2.35827 0,0 -0.0074,0.003 -0.0074,0.003 z"
       inkscape:connector-curvature="0" />
    <path
       style="fill:#241c1c;stroke-width:0.26458332"
       id="path3798"
       d="m 80.626073,275.77546 c 0.315519,-0.64756 0.668692,-1.27188 1.068023,-1.87131 0.513852,-0.80828 1.068027,-1.58913 1.616958,-2.37366 0.480267,-0.67488 1.012537,-1.30968 1.512819,-1.96955 0,0 0.0074,-0.003 0.0074,-0.003 v 0 c -0.500271,0.65988 -1.032523,1.29468 -1.512829,1.96953 -0.548928,0.78453 -1.103127,1.56535 -1.616966,2.37364 -0.399365,0.59938 -0.75251,1.22368 -1.068081,1.87118 0,0 -0.0073,0.003 -0.0073,0.003 z"
       inkscape:connector-curvature="0" />
    <path
       style="fill:#241c1c;stroke-width:0.26458332"
       id="path3800"
       d="m 56.870996,275.27275 c 0.547291,-0.54927 1.101304,-1.0918 1.636723,-1.6527 0.603046,-0.65163 1.153724,-1.3483 1.730325,-2.02282 0.215225,-0.24983 0.438758,-0.49222 0.662853,-0.73405 0,0 0.0074,-0.003 0.0074,-0.003 v 0 c -0.224099,0.24181 -0.447638,0.48419 -0.662866,0.73401 -0.57662,0.67452 -1.127292,1.3712 -1.730309,2.02287 -0.5354,0.56092 -1.089424,1.10344 -1.636718,1.65271 0,0 -0.0074,0.003 -0.0074,0.003 z"
       inkscape:connector-curvature="0" />
    <path
       style="fill:#241c1c;stroke-width:0.26458332"
       id="path3802"
       d="m 49.715702,271.98671 c 0,0.70576 0,1.41152 0,2.11727 0,0.84285 0,1.6857 0,2.52855 0.0019,0.51291 0.136877,1.01012 0.206235,1.51534 0.02855,0.26529 0.01622,0.13464 0.03734,0.39193 0,0 -0.0071,0.004 -0.0071,0.004 v 0 c -0.02111,-0.25727 -0.0088,-0.12663 -0.03732,-0.39189 -0.06934,-0.50527 -0.204517,-1.0025 -0.206285,-1.51544 0,-0.84285 0,-1.6857 0,-2.52855 0,-0.70576 0,-1.41151 0,-2.11727 0,0 0.0071,-0.004 0.0071,-0.004 z"
       inkscape:connector-curvature="0" />
    <path
       style="fill:#241c1c;stroke-width:0.26458332"
       id="path3804"
       d="m 53.812913,270.53172 c -0.239715,0.63012 -0.514578,1.2461 -0.789631,1.86142 -0.187978,0.54279 -0.499274,1.0115 -0.842409,1.4654 -0.05312,0.0595 -0.106241,0.11894 -0.159361,0.17841 0,0 -0.0123,0.005 -0.0123,0.005 v 0 c 0.05313,-0.0594 0.106267,-0.11887 0.159403,-0.17831 0.343165,-0.45381 0.654635,-0.92235 0.842531,-1.46513 0.275059,-0.61529 0.549924,-1.23126 0.789665,-1.86134 0,0 0.01212,-0.006 0.01212,-0.006 z"
       inkscape:connector-curvature="0" />
    <path
       style="fill:#241c1c;stroke-width:0.26458332"
       id="path3806"
       d="m 42.202621,270.04502 c -0.140007,0.80363 -0.290933,1.60475 -0.435679,2.40769 -0.160377,0.67979 -0.23441,1.3725 -0.319442,2.06394 -0.06075,0.42527 -0.08755,0.85434 -0.143174,1.28007 0,0 -0.01199,0.006 -0.01199,0.006 v 0 c 0.05568,-0.42571 0.08241,-0.8548 0.14318,-1.28006 0.08507,-0.69146 0.158964,-1.38421 0.31941,-2.06401 0.144719,-0.80294 0.295698,-1.60405 0.435679,-2.40768 0,0 0.01201,-0.006 0.01201,-0.006 z"
       inkscape:connector-curvature="0" />
    <path
       style="fill:#241c1c;stroke-width:0.26458332"
       id="path3808"
       d="m 51.967426,268.88458 c 0.309697,-0.18422 0.643948,-0.30393 0.988115,-0.4035 0,0 -0.01058,0.008 -0.01058,0.008 v 0 c -0.344115,0.0997 -0.678241,0.21961 -0.988015,0.40363 0,0 0.01048,-0.008 0.01048,-0.008 z"
       inkscape:connector-curvature="0" />
    <path
       style="fill:#241c1c;stroke-width:0.26458332"
       id="path3810"
       d="m 56.571424,268.47956 c -0.06012,0.0581 -0.125354,0.11128 -0.180366,0.17422 -0.130413,0.14921 -0.371975,0.49659 -0.474321,0.64443 -0.31169,0.45024 -0.583703,0.90641 -0.840801,1.38977 -0.325035,0.65411 -0.664668,1.30677 -0.921314,1.99211 -0.102843,0.27462 -0.186473,0.55607 -0.281281,0.83357 -0.144984,0.38106 -0.291981,0.76094 -0.415562,1.14954 0,0 -0.01209,0.006 -0.01209,0.006 v 0 c 0.123529,-0.38863 0.270513,-0.76852 0.415549,-1.14956 0.09482,-0.27752 0.178425,-0.559 0.281247,-0.83366 0.256588,-0.68539 0.59626,-1.33807 0.921261,-1.99222 0.257061,-0.48343 0.52905,-0.93963 0.840732,-1.38992 0.101645,-0.14685 0.344516,-0.49614 0.474226,-0.64467 0.05499,-0.063 0.120219,-0.1162 0.180329,-0.17431 0,0 0.01238,-0.005 0.01238,-0.005 z"
       inkscape:connector-curvature="0" />
    <path
       style="fill:#241c1c;stroke-width:0.26458332"
       id="path3816"
       d="m 50.39374,271.17445 c -0.07884,0.52862 -0.1446,1.05919 -0.220356,1.58824 -0.107543,0.60203 -0.165153,1.21354 -0.283266,1.81327 -0.130243,0.51218 -0.212994,1.03217 -0.257812,1.55821 -0.01222,0.42747 -0.04342,0.8517 -0.09051,1.27664 -0.01162,0.19935 -0.04937,0.39553 -0.08458,0.59162 0,0 -0.590301,0.28742 -0.590301,0.28742 v 0 c 0.03642,-0.19476 0.0781,-0.38935 0.08737,-0.58793 0.04843,-0.42462 0.08271,-0.84844 0.093,-1.27591 0.04503,-0.52876 0.123386,-1.0525 0.258003,-1.56665 0.124603,-0.59717 0.175234,-1.20924 0.284544,-1.80974 0.07582,-0.52686 0.144267,-1.05542 0.210526,-1.58336 0,0 0.593379,-0.29181 0.593379,-0.29181 z"
       inkscape:connector-curvature="0" />
    <path
       style="fill:#241c1c;stroke-width:0.26458332"
       id="path3818"
       d="m 54.213976,272.89912 c -0.32907,0.42052 -0.61169,0.87796 -0.893932,1.33109 -0.278698,0.44755 -0.589237,0.87273 -0.83953,1.33727 -0.218088,0.43898 -0.45878,0.86559 -0.680694,1.30253 -0.156919,0.34052 -0.331205,0.67372 -0.531363,0.99087 -0.105799,0.15954 -0.20143,0.32518 -0.303093,0.48735 0,0 -0.599982,0.2643 -0.599982,0.2643 v 0 c 0.102459,-0.16132 0.19581,-0.32738 0.300934,-0.48697 0.205092,-0.31349 0.380603,-0.64642 0.53744,-0.98642 0.223229,-0.43684 0.46264,-0.86454 0.681024,-1.30398 0.246994,-0.46898 0.557475,-0.89575 0.841293,-1.34275 0.280623,-0.45396 0.568614,-0.90476 0.876988,-1.34025 0,0 0.610915,-0.25304 0.610915,-0.25304 z"
       inkscape:connector-curvature="0" />
    <path
       style="fill:#241c1c;stroke-width:0.26458332"
       id="path3820"
       d="m 56.739427,275.69554 c -0.446641,0.32922 -0.877269,0.68098 -1.306251,1.03302 -0.431329,0.32137 -0.834324,0.67139 -1.209407,1.05631 -0.268129,0.25471 -0.467157,0.56659 -0.656837,0.88109 -0.217791,0.37629 -0.462547,0.73652 -0.717841,1.0882 0,0 -0.600702,0.25971 -0.600702,0.25971 v 0 c 0.256538,-0.34789 0.501261,-0.70595 0.716788,-1.08084 0.186754,-0.32013 0.387784,-0.63737 0.655021,-0.89709 0.375053,-0.38802 0.773454,-0.74608 1.210302,-1.06451 0.425374,-0.35187 0.857253,-0.6966 1.293263,-1.035 0,0 0.615664,-0.24089 0.615664,-0.24089 z"
       inkscape:connector-curvature="0" />
    <path
       style="fill:#241c1c;stroke-width:0.26458332"
       id="path3822"
       d="m 46.667176,278.82588 c -0.660292,-0.27899 -1.340453,-0.50899 -2.02093,-0.73333 -0.846476,-0.24977 -1.67137,-0.56156 -2.49887,-0.86651 -0.577977,-0.19256 -1.081064,-0.53454 -1.611913,-0.82156 -0.457102,-0.26591 -0.900838,-0.55605 -1.346335,-0.84169 -0.08092,-0.055 -0.161838,-0.1099 -0.242758,-0.16486 0,0 0.547894,-0.3502 0.547894,-0.3502 v 0 c 0.0805,0.0545 0.161004,0.10898 0.241506,0.16347 0.446307,0.2828 0.888659,0.57308 1.346528,0.83618 0.52582,0.28768 1.024438,0.62906 1.599332,0.81886 0.824519,0.30991 1.650249,0.61534 2.495204,0.86608 0.686564,0.22675 1.372785,0.45827 2.043041,0.72991 0,0 -0.552699,0.36365 -0.552699,0.36365 z"
       inkscape:connector-curvature="0" />
    <path
       style="fill:#241c1c;stroke-width:0.26458332"
       id="path3824"
       d="m 44.38824,280.08908 c -0.463703,-0.003 -0.927422,-0.003 -1.391134,-0.003 -0.523512,-2.1e-4 -1.047027,3e-5 -1.57054,7.9e-4 -0.435938,0.0269 -0.844396,-0.10654 -1.243703,-0.26321 -0.395904,-0.1829 -0.762362,-0.42688 -1.12435,-0.66914 -0.245747,-0.17702 -0.127613,-0.0784 -0.352755,-0.29781 0,0 0.556741,-0.34265 0.556741,-0.34265 v 0 c 0.221044,0.2098 0.105069,0.11427 0.346993,0.28771 0.359154,0.23893 0.722829,0.47986 1.11687,0.65706 0.395187,0.15276 0.800076,0.26911 1.229244,0.24367 0.522824,8e-4 1.045652,0.001 1.568476,8e-4 0.466394,-2e-4 0.932791,-2.7e-4 1.399178,-0.003 0,0 -0.53502,0.38871 -0.53502,0.38871 z"
       inkscape:connector-curvature="0" />
    <path
       style="fill:#241c1c;stroke-width:0.26458332"
       id="path3826"
       d="m 42.650989,281.82633 c -0.504227,-0.004 -1.008486,-0.003 -1.512726,-0.002 -0.424185,5.3e-4 -0.848368,1.9e-4 -1.272553,7.9e-4 -0.417158,-0.0139 -0.831215,0.0451 -1.245878,0.0824 -0.38135,0.034 -0.764241,0.0453 -1.146919,0.0502 -0.282384,0.006 -0.564729,-0.01 -0.84574,0.0208 0,0 0.528457,-0.3915 0.528457,-0.3915 v 0 c 0.28239,-0.022 0.565357,-0.0112 0.84845,-0.0164 0.381011,-0.006 0.762175,-0.0174 1.141812,-0.0525 0.416129,-0.0376 0.831829,-0.0949 1.250606,-0.0786 0.423558,5.3e-4 0.847117,6e-5 1.270675,7.9e-4 0.506275,10e-4 1.012571,0.002 1.518835,-0.002 0,0 -0.535019,0.38871 -0.535019,0.38871 z"
       inkscape:connector-curvature="0" />
    <path
       style="fill:#241c1c;stroke-width:0.26458332"
       id="path3828"
       d="m 46.593976,282.68169 c -0.437321,0.54107 -0.733591,1.17198 -1.011951,1.80422 -0.298543,0.70557 -0.56423,1.42499 -0.889686,2.11884 -0.218273,0.49756 -0.468048,0.98007 -0.699016,1.47178 0,0 -0.592053,0.26982 -0.592053,0.26982 v 0 c 0.228556,-0.49381 0.47983,-0.97606 0.700964,-1.4732 0.332901,-0.69125 0.598426,-1.41179 0.894953,-2.11899 0.274076,-0.63165 0.563848,-1.26465 0.991513,-1.80996 0,0 0.605276,-0.26251 0.605276,-0.26251 z"
       inkscape:connector-curvature="0" />
    <path
       style="fill:#241c1c;stroke-width:0.26458332"
       id="path3830"
       d="m 48.343015,284.19286 c -0.253317,0.61272 -0.474149,1.23717 -0.772387,1.83001 -0.20428,0.33377 -0.384538,0.67857 -0.549588,1.03288 0,0 -0.597963,0.27234 -0.597963,0.27234 v 0 c 0.168071,-0.35594 0.342797,-0.70686 0.556802,-1.03849 0.302805,-0.58671 0.525296,-1.20685 0.766255,-1.82069 0,0 0.596881,-0.27605 0.596881,-0.27605 z"
       inkscape:connector-curvature="0" />
    <path
       style="fill:#241c1c;stroke-width:0.26458332"
       id="path3832"
       d="m 50.896186,284.87375 c -0.168971,0.68004 -0.273479,1.37579 -0.37451,2.06889 -0.04015,0.45603 -0.129519,0.90475 -0.192693,1.35754 -0.04537,0.402 -0.09028,0.80716 -0.203788,1.19635 -0.05956,0.17744 -0.157226,0.33736 -0.248123,0.49967 0,0 -0.600173,0.26797 -0.600173,0.26797 v 0 c 0.09035,-0.15947 0.190291,-0.31467 0.255024,-0.48709 0.121629,-0.38374 0.165036,-0.78766 0.207679,-1.18675 0.06265,-0.45495 0.159422,-0.90435 0.20124,-1.36235 0.103023,-0.69318 0.210455,-1.38747 0.362212,-2.07164 0,0 0.593132,-0.28259 0.593132,-0.28259 z"
       inkscape:connector-curvature="0" />
    <path
       style="fill:#241c1c;stroke-width:0.26458332"
       id="path3834"
       d="m 53.165136,281.43762 c 0.472779,0.004 0.945576,0.002 1.418363,0.003 0.519692,0.0117 1.041074,-0.0222 1.559668,0.0173 0.504481,0.009 0.971174,0.19617 1.450282,0.33022 0.427461,0.11234 0.866349,0.15929 1.306523,0.18009 0.350361,0.0121 0.700995,0.008 1.051494,0.008 0.262107,-5.2e-4 0.131823,-2.5e-4 0.39085,-10e-4 0,0 -0.530894,0.38593 -0.530894,0.38593 v 0 c -0.258879,5.3e-4 -0.128582,2.3e-4 -0.390893,0.001 -0.351229,0.002 -0.702686,0.004 -1.053679,-0.0111 -0.442291,-0.0249 -0.882515,-0.0785 -1.311262,-0.19463 -0.475909,-0.13573 -0.942636,-0.3112 -1.444321,-0.31803 -0.517593,-0.033 -1.03718,-0.006 -1.555535,-0.0146 -0.475205,5.3e-4 -0.950421,-0.001 -1.425615,0.003 0,0 0.535019,-0.38871 0.535019,-0.38871 z"
       inkscape:connector-curvature="0" />
    <path
       style="fill:#241c1c;stroke-width:0.26458332"
       id="path3836"
       d="m 54.254378,283.34743 c 0.56388,0.13634 1.116166,0.31875 1.673749,0.4797 0.536093,0.14629 1.08367,0.24441 1.614572,0.41012 0.418235,0.14235 0.836351,0.2821 1.263494,0.39578 0.366564,0.095 0.730978,0.18947 1.106662,0.24135 0.247417,0.0447 0.128836,0.0149 0.356333,0.087 0,0 -0.543306,0.3707 -0.543306,0.3707 v 0 c -0.222102,-0.0648 -0.105421,-0.0375 -0.350732,-0.0788 -0.375782,-0.057 -0.74133,-0.15364 -1.108715,-0.24943 -0.426617,-0.11604 -0.844494,-0.25673 -1.262896,-0.39906 -0.530606,-0.16168 -1.076656,-0.26169 -1.610431,-0.41148 -0.559509,-0.16085 -1.113205,-0.34676 -1.682107,-0.47114 0,0 0.543377,-0.3748 0.543377,-0.3748 z"
       inkscape:connector-curvature="0" />
    <path
       style="fill:#241c1c;stroke-width:0.26458332"
       id="path3838"
       d="m 52.654506,283.78648 c 0.842365,0.3921 1.6792,0.80079 2.515529,1.20739 0.735719,0.39109 1.46367,0.79578 2.187239,1.20881 0.418856,0.25677 0.847942,0.49388 1.278387,0.73062 0,0 -0.545565,0.35583 -0.545565,0.35583 v 0 c -0.429771,-0.23748 -0.857531,-0.47677 -1.27625,-0.73334 -0.71878,-0.41463 -1.441087,-0.82253 -2.173623,-1.21253 -0.839581,-0.40973 -1.681332,-0.81972 -2.536585,-1.19433 0,0 0.550868,-0.36245 0.550868,-0.36245 z"
       inkscape:connector-curvature="0" />
    <path
       style="fill:#241c1c;stroke-width:0.26458332"
       id="path3840"
       d="m 48.376464,271.23837 c 0.166933,-0.56064 0.396459,-1.09757 0.704416,-1.59463 0.457126,-0.58877 1.142068,-0.91292 1.775817,-1.27475 0.405619,-0.20535 0.839195,-0.32641 1.288097,-0.3851 0.392388,-0.0432 0.787437,-0.045 1.181677,-0.0463 0.436774,0.0263 0.746332,0.17398 1.067583,0.46263 0.274672,0.29319 0.49353,0.61845 0.580673,1.01293 0.07523,0.43446 -0.106217,0.79122 -0.328935,1.14824 -0.283887,0.3754 -0.599906,0.51363 -1.040656,0.7557 -0.108577,0.0596 -0.218885,0.0927 -0.328518,0.0366 -0.08619,-0.29152 0.13892,-0.53547 0.342652,-0.71317 0.706233,-0.4909 1.033841,-0.52512 1.823497,-0.55673 0.393677,-0.006 0.776127,-0.1422 1.16857,-0.12317 0.387061,0.14058 0.528314,0.57227 0.628155,0.9366 0.115602,0.47961 0.12474,0.75816 -0.128924,1.18585 -0.357835,0.46625 -0.934616,0.69864 -1.502304,0.77157 -0.370678,0.036 -0.572894,0.01 -0.746535,-0.33703 -0.0208,-0.10086 -0.04745,-0.16948 -0.02191,-0.27288 0.0873,-0.35351 0.80061,-0.61559 1.136001,-0.6974 0.730102,-0.10413 1.465321,-0.12206 2.193629,-0.24716 0.590629,-0.11254 1.173999,-0.25331 1.777548,-0.20166 0.636817,0.20313 0.960855,0.62294 1.252307,1.19705 0.232653,0.48536 0.271886,1.01793 0.297667,1.54658 -0.01098,0.45858 -0.226674,0.83812 -0.496951,1.19235 -0.363591,0.48093 -0.875107,0.76227 -1.420408,1.01295 -0.255701,0.13978 -0.538419,0.20732 -0.823026,0.25665 0,0 0.525375,-0.39647 0.525375,-0.39647 v 0 c 0.281845,-0.0546 0.558155,-0.13125 0.811869,-0.26988 0.264467,-0.13028 0.290862,-0.14787 -0.248129,0.15921 -0.0519,0.0296 0.105119,-0.0575 0.153141,-0.0931 0.09343,-0.0691 0.191672,-0.17783 0.268578,-0.26283 0.04404,-0.0487 0.08653,-0.0987 0.1298,-0.14811 0.270721,-0.34018 0.497033,-0.70382 0.51898,-1.15161 -0.02127,-0.52022 -0.05742,-1.04465 -0.28121,-1.52415 -0.278784,-0.55432 -0.595458,-0.96598 -1.218941,-1.139 -0.59723,-0.0388 -1.176017,0.10404 -1.761106,0.20897 -0.730083,0.11875 -1.468612,0.13367 -2.196875,0.25774 -0.329094,0.0987 -0.41982,0.14905 0.152654,-0.17414 0.04159,-0.0235 -0.07915,0.0544 -0.112914,0.0882 -0.09732,0.0974 -0.0921,0.2064 -0.06248,0.33223 0.158692,0.32134 0.36994,0.30347 0.699302,0.26976 0.135675,-0.0206 0.217821,-0.0284 0.350477,-0.0674 0.05786,-0.017 0.2178,-0.0983 0.170347,-0.061 -0.125132,0.0982 -0.269092,0.16993 -0.407956,0.24748 -0.0512,0.0286 0.100542,-0.0615 0.144502,-0.10035 0.04411,-0.0389 0.07861,-0.0876 0.11792,-0.13135 0.267793,-0.41278 0.267666,-0.66073 0.154845,-1.13865 -0.09036,-0.33381 -0.21526,-0.75938 -0.587182,-0.86319 -0.389361,-2.5e-4 -0.770472,0.11988 -1.16137,0.1235 -0.307554,0.0146 -0.626253,0.0204 -0.923936,0.10862 -0.05922,0.0175 -0.222525,0.10234 -0.173685,0.0645 0.126648,-0.098 0.274177,-0.16563 0.411265,-0.24844 -0.203552,0.15699 -0.35865,0.32673 -0.401984,0.58786 0.132914,0.0213 0.366125,-0.13297 0.287549,-0.0782 -0.826762,0.5758 -0.188502,0.0861 -0.06796,-0.0794 0.219305,-0.34015 0.414136,-0.68074 0.348202,-1.10138 -0.07586,-0.38339 -0.293666,-0.6949 -0.558916,-0.97717 -0.306822,-0.26966 -0.628026,-0.41158 -1.041863,-0.42219 -0.391832,0.001 -0.784678,0.005 -1.174224,0.052 -0.443978,0.0675 -0.873307,0.1918 -1.272272,0.40278 0.113514,-0.0679 0.223152,-0.14281 0.34054,-0.20382 0.07493,-0.0389 -0.141846,0.0917 -0.212823,0.13745 -0.296545,0.19117 -0.587987,0.37955 -0.800894,0.66952 -0.313719,0.48599 -0.544227,1.01568 -0.701619,1.57278 0,0 -0.59712,0.2836 -0.59712,0.2836 z"
       inkscape:connector-curvature="0" />
    <path
       style="fill:#241c1c;stroke-width:0.26458332"
       id="path3842"
       d="m 61.900059,279.45262 c 0.667773,0.0491 1.321371,0.18018 1.969309,0.3438 0.677492,0.14658 1.259173,0.47715 1.810777,0.88285 0.395581,0.33161 0.678405,0.75138 0.822835,1.2447 0.07468,0.3524 0.108514,0.71752 0.05242,1.07413 -0.167765,0.57569 -0.669798,0.74191 -1.167837,1.01575 -0.397772,0.13664 -0.805082,0.22348 -1.220549,0.28518 -0.498057,0.10137 -0.997969,0.15328 -1.505386,0.13588 -0.176155,-0.0538 -0.42167,-0.004 -0.587608,-0.1029 -0.0186,-0.0111 -0.04642,-0.0461 -0.02855,-0.0584 0.602101,-0.41258 0.45525,-0.37022 0.900522,-0.39605 0.774647,-0.0555 1.547334,0.0143 2.312845,0.13028 0.536763,0.11802 1.066935,0.1986 1.41759,0.6579 0.04086,0.0838 0.116395,0.21829 0.125756,0.31563 0.02861,0.29748 -0.15666,0.59401 -0.295159,0.84008 -0.319754,0.57878 -0.671787,0.86339 -1.223933,1.20403 -0.776086,0.51777 -1.358662,0.71189 -2.252102,0.78843 -0.487762,0.0282 -0.976627,0.0643 -1.458703,-0.0285 -0.108606,-0.0349 -0.236358,-0.0842 -0.353393,-0.0954 -0.03039,-0.003 -0.117192,0.0235 -0.0913,0.007 0.629787,-0.39395 0.423304,-0.41983 0.628258,-0.12877 0.361564,0.41369 0.737383,0.8139 1.066099,1.25493 0.176456,0.28731 0.402164,0.64209 0.355632,0.99899 -0.0093,0.071 -0.03645,0.13854 -0.05467,0.2078 -0.364948,0.657 -1.111954,0.97201 -1.813952,1.14472 -0.651682,0.12427 -1.317257,0.13057 -1.978279,0.13996 -0.503848,0.004 -1.007724,0.002 -1.511578,1.4e-4 -0.35792,0.025 -0.650959,-0.0633 -0.888232,-0.33218 -0.241456,-0.37703 -0.380339,-0.80209 -0.50936,-1.22734 -0.09464,-0.28835 -0.04871,-0.14643 -0.137901,-0.42569 0,0 0.574185,-0.31509 0.574185,-0.31509 v 0 c 0.08776,0.27978 0.04216,0.13737 0.136996,0.42716 0.125336,0.41632 0.26012,0.83255 0.499629,1.19963 0.231563,0.25108 0.518639,0.30886 0.855316,0.28834 0.501703,0.003 1.003422,0.008 1.505132,0.003 0.658551,-0.009 1.322428,-0.0182 1.969815,-0.15287 0.0977,-0.0261 0.196853,-0.0474 0.293093,-0.0785 0.09178,-0.0297 0.320325,-0.18592 0.270213,-0.1035 -0.06735,0.11076 -0.212981,0.15067 -0.331216,0.20383 -0.06818,0.0307 0.122722,-0.0859 0.178837,-0.13532 0.166553,-0.1466 0.170826,-0.17588 0.295101,-0.35548 0.0205,-0.0637 0.04954,-0.12533 0.06149,-0.1912 0.0618,-0.34076 -0.166341,-0.6892 -0.330327,-0.96453 -0.327181,-0.44361 -0.706355,-0.84164 -1.073428,-1.25187 -0.06959,-0.0958 -0.168293,-0.21846 -0.138855,-0.24255 0.492812,-0.40329 0.589279,-0.40206 1.059299,-0.25092 0.477805,0.0815 0.962443,0.0459 1.444244,0.0171 0.291086,-0.0284 0.577947,-0.0591 0.860829,-0.13796 0.09093,-0.0253 0.180695,-0.0552 0.26909,-0.0883 0.09497,-0.0356 0.288681,-0.21883 0.280553,-0.11774 -0.0089,0.11137 -0.190159,0.11736 -0.285239,0.17603 0.255929,-0.15404 0.532048,-0.30462 0.747657,-0.5156 0.194939,-0.19076 0.33175,-0.43315 0.483933,-0.6563 0.131575,-0.22334 0.329954,-0.51543 0.314669,-0.7901 -0.0049,-0.088 -0.07717,-0.22008 -0.113043,-0.29551 -0.326276,-0.42384 -0.882544,-0.51978 -1.379657,-0.62292 -0.765693,-0.11314 -1.538078,-0.18124 -2.312,-0.1125 -0.07618,0.008 -0.271682,0.0872 -0.228537,0.0239 0.337326,-0.49481 0.303678,-0.34978 0.549355,-0.29829 0.179474,0.0376 0.261715,0.0408 0.450363,0.0606 0.505425,0.0121 1.003072,-0.0482 1.499142,-0.14591 0.413838,-0.0645 0.821201,-0.15444 1.214168,-0.30255 -0.145656,0.089 -0.29191,0.17697 -0.436973,0.26691 -0.04117,0.0255 0.08568,-0.0457 0.125265,-0.0737 0.178001,-0.12553 0.30503,-0.30555 0.372448,-0.51129 0.06689,-0.34552 0.02633,-0.70403 -0.03805,-1.04812 -0.135337,-0.48188 -0.407707,-0.89015 -0.794382,-1.21168 -0.546248,-0.40048 -1.126072,-0.71848 -1.795479,-0.86288 -0.64921,-0.1617 -1.304043,-0.29035 -1.973611,-0.32915 0,0 0.536435,-0.38163 0.536435,-0.38163 z"
       inkscape:connector-curvature="0" />
    <path
       style="fill:#241c1c;stroke-width:0.26458332"
       id="path3844"
       d="m 39.304928,274.30322 c -0.420725,-0.1097 -0.810715,-0.30916 -1.215917,-0.46341 -0.190515,-0.0596 -0.39144,-0.10235 -0.591637,-0.0663 -0.04995,0.009 -0.188158,0.073 -0.145087,0.0462 0.56606,-0.35284 0.537559,-0.34935 0.366519,-0.12273 -0.145182,0.35718 -0.1877,0.75222 -0.230052,1.13355 -0.02828,0.35982 -0.0605,0.72268 -0.03131,1.08322 0.0605,0.3745 0.357482,0.59687 0.646531,0.80404 0.443143,0.31962 -0.09835,0.44962 -0.513932,0.64963 -0.02492,0.012 -0.351594,0.0343 -0.362373,0.0351 -0.186092,0.0137 -0.362035,0.0555 -0.527482,0.14222 -0.03936,0.0206 -0.154135,0.0882 -0.114141,0.0689 0.498549,-0.24134 0.573654,-0.4003 0.413639,-0.14351 -0.110691,0.3174 -0.09724,0.66291 -0.09944,0.99499 0.0083,0.33727 -0.03134,0.67774 0.07187,1.00261 0.03171,0.0526 0.0555,0.11081 0.09514,0.15768 0.203253,0.24037 0.741971,0.49897 1.028885,0.63668 0.409877,0.23731 0.155043,0.25534 -0.434033,0.57861 -0.08284,0.0455 -0.62121,0.0412 -0.716394,0.0443 -0.372607,0.0206 -0.756126,-0.0277 -1.122016,0.0677 -0.06086,0.0159 -0.229142,0.10017 -0.177252,0.0646 0.136438,-0.0934 0.289298,-0.16029 0.433946,-0.24043 -0.247648,0.20516 -0.251849,0.55436 -0.236548,0.85222 0.04376,0.39726 0.272452,0.66423 0.591809,0.87837 0.353343,0.21364 0.711943,0.40775 1.090205,0.57236 0.179081,0.0741 0.367152,0.11784 0.555556,0.15963 0,0 -0.539999,0.37394 -0.539999,0.37394 v 0 c -0.190552,-0.0456 -0.380719,-0.0932 -0.561736,-0.17011 -0.38108,-0.1667 -0.740521,-0.36847 -1.097347,-0.58235 -0.330752,-0.22919 -0.568338,-0.51728 -0.622802,-0.92958 -0.02223,-0.3118 -0.01823,-0.6765 0.206301,-0.9174 0.233047,-0.13315 0.4606,-0.27642 0.69914,-0.39946 0.353859,-0.18252 0.922031,-0.0673 1.305195,-0.11356 0.153596,-0.007 0.390258,-0.0124 0.547044,-0.0361 0.05467,-0.008 0.200925,-0.0776 0.161163,-0.0392 -0.513238,0.49575 -0.321259,0.37477 -0.627414,0.19593 -0.315995,-0.15617 -0.825955,-0.3952 -1.051515,-0.66681 -0.04241,-0.0511 -0.06887,-0.1135 -0.103312,-0.17025 -0.111432,-0.33128 -0.07676,-0.67555 -0.08148,-1.02135 5.29e-4,-0.34142 -0.0071,-0.69099 0.08212,-1.02308 0.201705,-0.41638 0.894527,-0.6773 1.358315,-0.72803 0.06446,-0.007 0.12932,-0.0102 0.193376,-0.0199 0.05433,-0.008 0.202846,-0.0703 0.161277,-0.0343 -0.139536,0.12071 -0.311563,0.19774 -0.466315,0.2982 -0.01627,0.0106 0.04453,-0.0101 0.05081,-0.0285 0.02307,-0.0675 -0.145053,-0.15582 -0.144251,-0.15796 -0.302911,-0.22009 -0.606981,-0.46138 -0.676204,-0.85202 -0.03416,-0.36436 2.65e-4,-0.73192 0.02784,-1.09591 0.04195,-0.38993 0.08992,-0.787 0.213821,-1.15994 0.322085,-0.57054 0.968221,-0.66952 1.517898,-0.48743 0.402855,0.15834 0.793769,0.35548 1.216988,0.45545 0,0 -0.545401,0.37352 -0.545401,0.37352 z"
       inkscape:connector-curvature="0" />
    <path
       style="fill:#241c1c;stroke-width:0.26458332"
       id="path3846"
       d="m 41.72096,287.48989 c -0.05474,0.62905 0.0862,1.22888 0.265123,1.82577 0.125137,0.33926 0.245824,0.71048 0.492294,0.98651 0.08625,0.0966 0.197369,0.16768 0.30139,0.24219 0.311901,0.2024 0.673693,0.22946 1.03438,0.24764 0.41093,0.002 0.825143,0.0315 1.234403,-0.0132 0.05534,-0.0142 0.112864,-0.0218 0.166021,-0.0427 0.05408,-0.0213 0.204542,-0.11062 0.153284,-0.0832 -0.137766,0.0737 -0.264351,0.17331 -0.412798,0.22205 -0.05821,0.0191 0.09094,-0.0827 0.130556,-0.12939 0.07206,-0.085 0.139925,-0.20773 0.196567,-0.30263 0.177014,-0.26795 0.323906,-0.54726 0.449924,-0.84172 0.739841,-1.24928 0.672746,0.23793 0.673484,0.40699 -0.037,0.38994 0.04979,0.72605 0.259445,1.05291 0.225835,0.30897 0.568039,0.35124 0.923261,0.38742 0.459216,0.0291 0.919826,0.0222 1.379691,0.0192 0.210804,-0.003 0.433297,0.004 0.637108,-0.0621 0.06202,-0.0202 0.23368,-0.11561 0.177041,-0.0833 -0.50151,0.28626 -0.505444,0.32964 -0.304313,0.0791 0.123846,-0.24235 0.268131,-0.61982 0.05198,-0.85126 -0.179578,-0.0434 -0.77189,0.22346 0.376362,-0.26297 0.03024,-0.0128 -0.04215,0.0513 -0.05587,0.0811 -0.04007,0.0871 -0.05285,0.1928 -0.06985,0.28513 -0.04875,0.4252 -0.04627,0.8543 -0.04701,1.28169 -0.01495,0.38979 0.04154,0.76308 0.222628,1.10892 0.214903,0.37922 0.534908,0.64625 0.908257,0.85836 0.347993,0.18631 0.736073,0.21268 1.122092,0.23054 0.298511,0.016 0.597667,0.0183 0.881613,-0.0912 0.0732,-0.0282 0.282951,-0.13558 0.211016,-0.10426 -0.121595,0.0529 -0.24007,0.11278 -0.360103,0.16918 0.438245,-0.43788 0.494868,-1.06923 0.553463,-1.65555 0.07308,-0.55394 -0.03355,-0.96226 -0.327837,-1.42668 -0.341024,-0.42237 -0.75346,-0.7803 -1.148424,-1.15073 -0.348925,-0.31666 -0.577242,-0.48294 -1.055579,-0.45602 -0.241927,0.0812 -0.124003,0.0307 -0.353354,0.15221 0,0 0.512543,-0.40955 0.512543,-0.40955 v 0 c 0.240141,-0.11022 0.116446,-0.067 0.370888,-0.13019 0.486018,-0.002 0.72862,0.17661 1.079672,0.50155 0.398478,0.37463 0.816094,0.73514 1.158017,1.16405 0.302406,0.47502 0.421061,0.89801 0.345657,1.46617 -0.0575,0.59585 -0.110286,1.23836 -0.529024,1.7023 -0.785939,0.49813 -0.980995,0.70981 -1.870183,0.651 -0.39465,-0.0207 -0.788419,-0.0577 -1.140061,-0.25595 -0.379743,-0.22345 -0.706826,-0.50091 -0.927949,-0.88937 -0.188552,-0.35383 -0.253325,-0.73673 -0.236953,-1.13759 0.0016,-0.43009 -7.93e-4,-0.86111 0.0391,-1.2898 0.06731,-0.4378 0.275683,-1.02084 0.907677,-0.73394 0.219652,0.27113 0.118446,0.64184 -0.01614,0.93183 -0.363497,0.55836 -1.027162,0.72171 -1.642115,0.71253 -0.461597,10e-4 -0.924195,0.009 -1.384874,-0.0247 -0.374065,-0.0441 -0.724035,-0.1085 -0.955789,-0.43617 -0.213508,-0.33575 -0.316992,-0.6841 -0.277807,-1.08518 -2.64e-4,-0.16771 0.0013,-0.33603 -0.01077,-0.50344 -0.003,-0.0415 -0.04364,-0.0959 -0.01299,-0.12401 0.169846,-0.15545 0.379364,-0.26108 0.571825,-0.38745 0.01336,-0.009 -0.02249,0.0228 -0.03374,0.0341 -0.139608,0.2898 -0.260877,0.58653 -0.451681,0.84993 -0.04448,0.0776 -0.137165,0.24475 -0.190913,0.31634 -0.273238,0.36394 -0.736354,0.57706 -1.170956,0.67761 -0.411646,0.0326 -0.826077,0.0112 -1.238483,0.004 -0.371967,-0.0214 -0.740333,-0.0614 -1.056597,-0.27822 -0.115811,-0.0859 -0.215003,-0.15002 -0.310618,-0.26094 -0.24641,-0.28583 -0.369028,-0.66192 -0.496393,-1.00884 -0.182645,-0.59932 -0.32508,-1.20417 -0.285964,-1.83646 0,0 0.588367,-0.29979 0.588367,-0.29979 z"
       inkscape:connector-curvature="0" />
    <path
       style="fill:#241c1c;stroke-width:0.26458332"
       id="path3848"
       d="m 17.119083,276.05976 c 0.02337,-0.0594 0.04307,-0.12029 0.0701,-0.17808 0.0098,-0.0209 0.281264,-0.53949 0.281417,-0.53981 0.179672,-0.37138 0.323058,-0.75796 0.468823,-1.14337 0.299434,-0.82897 0.624275,-1.64699 0.982606,-2.45206 0.263593,-0.54836 0.467057,-1.12089 0.751375,-1.65935 0.211918,-0.40354 0.487384,-0.76632 0.712187,-1.16209 0,0 0.595965,-0.26615 0.595965,-0.26615 v 0 c -0.221909,0.39843 -0.498283,0.76012 -0.714891,1.16178 -0.290426,0.53621 -0.490732,1.11021 -0.758155,1.65747 -0.362353,0.80327 -0.692443,1.61922 -0.987449,2.44992 -0.143955,0.38547 -0.283712,0.77475 -0.459237,1.14745 -0.08485,0.18015 -0.195565,0.34754 -0.27766,0.52896 -0.02651,0.0586 -0.04153,0.12174 -0.0623,0.18262 0,0 -0.602782,0.27271 -0.602782,0.27271 z"
       inkscape:connector-curvature="0" />
    <path
       style="fill:#241c1c;stroke-width:0.26458332"
       id="path3850"
       d="m 19.435402,276.04966 c 0.504242,-0.50312 1.015523,-0.99934 1.505794,-1.51616 0.556737,-0.56309 0.987936,-1.22981 1.441984,-1.87412 0.317347,-0.48818 0.640695,-0.97318 0.943123,-1.47088 0.228357,-0.37401 0.487343,-0.72777 0.737905,-1.08692 0,0 0.600395,-0.26102 0.600395,-0.26102 v 0 c -0.252488,0.35843 -0.512867,0.7118 -0.74386,1.08473 -0.301434,0.50053 -0.626086,0.98693 -0.944551,1.47661 -0.458164,0.64407 -0.885362,1.3168 -1.441199,1.88369 -0.485261,0.51498 -0.993993,1.00693 -1.489955,1.51156 0,0 -0.609636,0.25251 -0.609636,0.25251 z"
       inkscape:connector-curvature="0" />
    <path
       style="fill:#241c1c;stroke-width:0.26458332"
       id="path3852"
       d="m 22.969626,276.68486 c 0.600943,-0.29562 1.205837,-0.58333 1.82358,-0.84233 0.179289,-0.0738 0.46237,-0.18727 0.639438,-0.27227 0.09832,-0.0472 0.30571,-0.25926 0.290072,-0.15133 -0.01601,0.11049 -0.181133,0.17789 -0.291937,0.16419 -0.100275,-0.0124 0.169136,-0.11067 0.251501,-0.16919 0.07831,-0.0556 0.15357,-0.11545 0.230355,-0.17318 0.337839,-0.2866 0.681345,-0.56666 1.018458,-0.85421 0.267531,-0.22388 0.553223,-0.42412 0.831837,-0.6336 0,0 0.608549,-0.24225 0.608549,-0.24225 v 0 c -0.277008,0.21023 -0.562715,0.40868 -0.831815,0.62925 -0.337688,0.29058 -0.686843,0.56743 -1.022752,0.86007 -0.678453,0.52084 -1.43215,0.93703 -2.230844,1.24291 -0.61982,0.26416 -1.22955,0.55098 -1.831383,0.85385 0,0 0.514941,-0.41191 0.514941,-0.41191 z"
       inkscape:connector-curvature="0" />
    <path
       style="fill:#241c1c;stroke-width:0.26458332"
       id="path3854"
       d="m 16.33528,269.99897 c 0.233291,-0.56516 0.482301,-1.1236 0.722581,-1.68589 0.180191,-0.45287 0.426363,-0.86407 0.729152,-1.24388 0.49677,-0.58154 1.184129,-0.93177 1.859585,-1.27003 0.497028,-0.24264 1.057378,-0.23835 1.598122,-0.25594 0.606446,-0.006 1.214694,-0.0458 1.815826,0.0486 0.543474,0.10484 0.905252,0.48311 1.215191,0.91465 0.238973,0.39245 0.322191,0.83777 0.321101,1.29133 -0.06782,0.65878 -0.615454,0.83087 -1.145286,1.12158 -0.142016,0.0476 -0.535288,0.003 -0.372191,-0.24151 0.03334,-0.05 0.08638,-0.0836 0.129575,-0.12537 0.633721,-0.50762 1.357935,-0.76512 2.12687,-0.95873 0.530657,-0.13403 1.077098,-0.1653 1.621679,-0.18217 0.541079,-0.044 1.029878,0.17617 1.489877,0.43525 0.450313,0.25485 0.657619,0.55864 0.782394,1.04996 0.117224,0.45546 0.0085,0.85857 -0.214627,1.25792 -0.422847,0.66758 -1.090367,0.97459 -1.764668,1.33991 -0.391742,0.14579 -0.806154,0.20458 -1.212272,0.0969 -0.03168,-0.0157 -0.07276,-0.0196 -0.09505,-0.047 -0.01746,-0.0215 -0.03315,-0.0671 -0.01011,-0.0824 0.730382,-0.48682 0.854283,-0.3982 1.632553,-0.42369 0.634079,1.2e-4 1.27381,-0.071 1.902277,0.0344 0.592204,0.12911 0.806611,0.47568 1.123463,0.94803 0.283044,0.44668 0.531508,0.9145 0.706747,1.41388 0.120158,0.44261 0.163717,0.72574 -0.08324,1.1295 -0.453556,0.47369 -1.075727,0.72734 -1.684147,0.93784 -0.341672,0.11134 -0.697457,0.14941 -1.054213,0.16845 0,0 0.529762,-0.38963 0.529762,-0.38963 v 0 c 0.353496,-0.0223 0.705588,-0.0666 1.04249,-0.18211 0.04694,-0.0161 0.327591,-0.11176 0.36935,-0.1286 0.06746,-0.0272 0.255982,-0.13483 0.198914,-0.0897 -0.108276,0.0856 -0.232638,0.14921 -0.354981,0.21306 -0.130355,0.068 0.479274,-0.29028 0.351838,-0.26608 0.269277,-0.37552 0.221101,-0.64685 0.110664,-1.07604 -0.168124,-0.49638 -0.413708,-0.95927 -0.693745,-1.40165 -0.312288,-0.45995 -0.516739,-0.78541 -1.097704,-0.90122 -0.624464,-0.0956 -1.258874,-0.031 -1.887881,-0.0291 -0.228222,0.009 -0.476827,0.0159 -0.705322,0.0381 -0.07907,0.008 -0.282465,0.0965 -0.236174,0.0319 0.294389,-0.41056 0.329557,-0.3457 0.476692,-0.27173 0.397722,0.0947 0.805466,0.0194 1.18197,-0.12996 -0.116276,0.0743 -0.239008,0.1393 -0.348832,0.22282 -0.06707,0.051 0.149212,-0.0788 0.219872,-0.12474 0.310255,-0.20159 0.576995,-0.45864 0.784426,-0.76517 0.22819,-0.38244 0.346985,-0.76665 0.235312,-1.21211 -0.116366,-0.47719 -0.314489,-0.76105 -0.751805,-1.00588 -0.457555,-0.25121 -0.935847,-0.45438 -1.470109,-0.40606 -0.541324,0.0192 -1.083911,0.0552 -1.610621,0.19157 -0.300985,0.0784 -0.606442,0.15596 -0.895373,0.27335 -0.08761,0.0356 -0.322965,0.1881 -0.256802,0.12054 0.08928,-0.0912 0.215529,-0.13751 0.329542,-0.19482 0.06411,-0.0322 -0.119477,0.0795 -0.179215,0.11925 -0.367238,0.25694 -0.120335,0.25482 0.149341,0.20357 -0.142875,0.0879 -0.286207,0.17514 -0.428625,0.26382 -0.04398,0.0274 0.0916,-0.0492 0.133315,-0.0799 0.197992,-0.14592 0.313641,-0.35594 0.339361,-0.59922 0.01079,-0.4401 -0.07004,-0.87424 -0.298357,-1.25646 -0.300892,-0.4214 -0.655564,-0.77802 -1.186477,-0.87109 -0.597912,-0.0861 -1.202546,-0.0485 -1.804817,-0.0417 -0.539507,0.0215 -1.094231,0.0288 -1.585421,0.28169 -0.361623,0.18579 -0.250736,0.1341 0.09664,-0.0731 0.08019,-0.0478 -0.163239,0.091 -0.241869,0.14133 -0.219466,0.14057 -0.233891,0.16021 -0.417161,0.34323 -0.06372,0.0636 -0.125061,0.1296 -0.187592,0.1944 -0.305222,0.37434 -0.556457,0.77838 -0.737803,1.22823 -0.24099,0.56019 -0.494931,1.11469 -0.715256,1.68348 0,0 -0.598742,0.27417 -0.598742,0.27417 z"
       inkscape:connector-curvature="0" />
    <path
       style="fill:#241c1c;stroke-width:0.26458332"
       id="path3856"
       d="m 15.459896,281.98628 c -0.464636,0.46314 -0.843877,1.00629 -1.223058,1.53968 -0.366988,0.48745 -0.695853,1.00102 -1.044437,1.5012 -0.314076,0.43258 -0.641035,0.85552 -0.960507,1.28408 -0.381457,0.49267 -0.729956,1.00899 -1.110977,1.50202 -0.239586,0.30246 -0.502623,0.58502 -0.766002,0.86658 0,0 -0.6009405,0.25111 -0.6009405,0.25111 v 0 c 0.2642335,-0.27992 0.5279585,-0.56093 0.7691375,-0.86132 0.384189,-0.4907 0.731608,-1.00743 1.112041,-1.50089 0.317248,-0.42905 0.643001,-0.8517 0.95913,-1.28159 0.353079,-0.49963 0.679909,-1.01727 1.051058,-1.50437 0.375422,-0.53227 0.752649,-1.07229 1.203639,-1.54345 0,0 0.610916,-0.25305 0.610916,-0.25305 z"
       inkscape:connector-curvature="0" />
    <path
       style="fill:#241c1c;stroke-width:0.26458332"
       id="path3858"
       d="m 16.019142,283.64032 c -0.213163,0.68365 -0.376535,1.38047 -0.585138,2.06539 -0.195279,0.68737 -0.403153,1.37191 -0.566739,2.06773 -0.129291,0.51935 -0.312207,1.02442 -0.48016,1.53251 -0.0248,0.0664 -0.04959,0.13278 -0.07439,0.19917 0,0 -0.594218,0.27599 -0.594218,0.27599 v 0 c 0.02555,-0.0657 0.0511,-0.13139 0.07665,-0.19708 0.169341,-0.50698 0.353295,-1.01091 0.485864,-1.52871 0.16382,-0.69874 0.378707,-1.38436 0.572341,-2.07517 0.209877,-0.68133 0.371865,-1.37481 0.5694,-2.05975 0,0 0.59639,-0.28008 0.59639,-0.28008 z"
       inkscape:connector-curvature="0" />
    <path
       style="fill:#241c1c;stroke-width:0.26458332"
       id="path3860"
       d="m 19.493645,285.37757 c -0.220267,0.6728 -0.334799,1.36879 -0.414374,2.07012 -0.06426,0.64042 -0.07784,1.28416 -0.08261,1.92728 0.01441,0.42369 -0.0145,0.84585 -0.09051,1.26269 -0.113719,0.40457 -0.299197,0.79005 -0.505817,1.15512 -0.234664,0.37555 -0.439983,0.76915 -0.631491,1.16822 -0.136605,0.34959 -0.292205,0.69207 -0.527972,0.98589 0,0 -0.604274,0.25627 -0.604274,0.25627 v 0 c 0.248499,-0.27928 0.400671,-0.62442 0.53533,-0.97067 0.189191,-0.4017 0.396429,-0.79643 0.630887,-1.1736 0.209467,-0.35734 0.387886,-0.7392 0.512935,-1.13417 0.081,-0.4134 0.111979,-0.83346 0.100474,-1.25466 0.0069,-0.64622 0.02042,-1.29295 0.08603,-1.93641 0.07742,-0.70225 0.190943,-1.39813 0.394999,-2.07599 0,0 0.596389,-0.28009 0.596389,-0.28009 z"
       inkscape:connector-curvature="0" />
    <path
       style="fill:#241c1c;stroke-width:0.26458332"
       id="path3862"
       d="m 7.9535215,287.21229 c 0.2087573,0.56997 0.4582641,1.12486 0.7044827,1.67965 0.1914306,0.49289 0.5073079,0.9047 0.9276332,1.22042 0.3482136,0.21156 0.7198896,0.28408 1.1184636,0.22282 0.43276,-0.0704 0.85247,-0.19109 1.26159,-0.34742 -0.117696,0.0868 0.477253,-0.25039 0.357891,-0.18789 -0.145239,0.0761 -0.285572,0.16135 -0.431744,0.2356 -0.01739,0.009 0.02974,-0.052 0.04396,-0.0386 0.03901,0.0366 -0.06619,0.09 -0.114976,0.11197 0.04336,-0.0341 -0.432287,0.23421 -0.322906,0.17812 0.119784,-0.0614 0.223916,-0.15976 0.354014,-0.19433 0.08322,-0.0221 -0.14039,0.10002 -0.206545,0.15513 -0.148222,0.12349 -0.249148,0.23454 -0.383141,0.37243 -0.256052,0.28337 -0.546574,0.58401 -0.632891,0.96764 0.0033,0.0314 -0.0023,0.0651 0.0099,0.0942 0.07114,0.17099 0.615042,0.16674 0.761358,0.17583 0.550842,0.0559 0.911772,-0.0197 1.398112,-0.27302 0.07748,-0.0415 0.306287,-0.17232 0.232451,-0.1246 -0.869099,0.56169 0.235613,-0.20872 0.373747,-0.31176 0.248461,-0.17209 0.423351,-0.29806 0.748655,-0.44321 0.053,-0.0237 0.05011,0.11487 0.03425,0.1707 -0.03074,0.10823 -0.08758,0.20728 -0.130093,0.31146 -0.155632,0.45761 -0.369139,0.89022 -0.554688,1.33539 -0.204371,0.50856 -0.09385,0.74242 0.26909,1.10902 0.313717,0.28987 0.66814,0.47884 1.081736,0.57416 0.432417,0.0707 0.872424,0.0675 1.309298,0.0686 0.408264,-0.001 0.816516,-0.004 1.22478,-0.005 0.06522,-2.2e-4 0.130442,-5.3e-4 0.195663,-5.3e-4 0.131569,-2.7e-4 0.264399,0.0176 0.394708,-5.3e-4 0.06698,-0.009 0.248821,-0.0957 0.195542,-0.0541 -0.894438,0.6992 -0.265708,0.0776 -0.2354,0.046 0.310842,-0.46591 0.197667,-0.96189 -0.02264,-1.43587 -0.266202,-0.4924 -0.721792,-0.65556 -1.239719,-0.76632 -0.351506,-0.0773 -0.583366,-0.0457 -0.928652,0.0313 0,0 0.515216,-0.39045 0.515216,-0.39045 v 0 c 0.338176,-0.0632 0.608052,-0.0939 0.948505,-0.012 0.559794,0.12879 0.978293,0.29152 1.273252,0.81591 0.228133,0.4917 0.35006,1.00673 0.05734,1.50344 -0.524275,0.63418 -0.982775,0.66818 -1.684175,0.64892 -0.408056,10e-4 -0.81611,0.004 -1.224172,0.004 -0.440439,-0.003 -0.884612,7e-5 -1.319332,-0.0803 -0.419994,-0.10702 -0.781598,-0.30797 -1.100017,-0.60548 -0.371633,-0.37656 -0.510634,-0.65155 -0.304007,-1.17703 0.181106,-0.44585 0.403036,-0.87378 0.551752,-1.3331 0.180396,-0.46857 0.132847,-0.33011 0.672759,-0.6355 0.04159,-0.0235 -0.07987,0.0525 -0.119807,0.0787 -0.549894,0.40209 -1.09549,0.80627 -1.72492,1.08576 -0.505527,0.24751 -0.859305,0.29843 -1.421207,0.24673 -0.287909,-0.0205 -0.787777,0.014 -0.833012,-0.36303 0.06847,-0.39929 0.362057,-0.71348 0.624918,-1.00514 0.1186,-0.12477 0.249133,-0.26784 0.379018,-0.38127 0.383218,-0.33466 0.850669,-0.56096 1.303056,-0.7867 0.03926,-0.01 0.07803,-0.0368 0.117785,-0.0293 0.110848,0.021 0.110975,0.0777 0.04406,0.12047 -0.339177,0.21664 -0.683073,0.43804 -1.054532,0.59739 -0.413324,0.15029 -0.835455,0.27123 -1.271316,0.33617 -0.411665,0.045 -0.7940022,-0.04 -1.1462549,-0.26594 -0.4223229,-0.32825 -0.7464012,-0.74866 -0.9410319,-1.2507 -0.2428777,-0.55733 -0.489784,-1.11345 -0.7145414,-1.67819 0,0 0.5767699,-0.32044 0.5767699,-0.32044 z"
       inkscape:connector-curvature="0" />
    <path
       style="fill:#241c1c;stroke-width:0.26458332"
       id="path3864"
       d="m 7.4842269,287.67544 c 0.1446019,-0.47722 0.4565827,-0.77646 0.8702042,-1.02929 0.6029452,-0.41874 1.1987599,-0.54464 1.8933279,-0.63719 0,0 -0.5248315,0.39198 -0.5248315,0.39198 v 0 c -0.2562114,0.0337 -0.5119486,0.0684 -0.7624696,0.13422 -0.09505,0.025 -0.2841117,0.18416 -0.282039,0.0859 0.00249,-0.11775 0.1897619,-0.13955 0.2846425,-0.20933 -0.4268862,0.24482 -0.7248102,0.49595 -0.881716,0.9801 0,0 -0.5971185,0.2836 -0.5971185,0.2836 z"
       inkscape:connector-curvature="0" />
    <path
       style="fill:#241c1c;stroke-width:0.26458332"
       id="path3866"
       d="m 12.850837,276.72761 c -0.462283,-0.61551 -0.939922,-1.21888 -1.41525,-1.82425 -0.427951,-0.54944 -0.894283,-1.06682 -1.343369,-1.59869 -0.4131142,-0.50388 -0.8959137,-0.94212 -1.3478125,-1.40982 -0.4281805,-0.38282 -0.8144597,-0.8044 -1.187545,-1.24001 0,0 0.5564061,-0.33511 0.5564061,-0.33511 v 0 c 0.3724973,0.43436 0.7626151,0.85066 1.185441,1.23689 0.4511746,0.47037 0.9353314,0.90918 1.3502704,1.4133 0.449045,0.5324 0.910239,1.05483 1.338705,1.60423 0.474535,0.6073 0.950479,1.21359 1.429342,1.81746 0,0 -0.566188,0.336 -0.566188,0.336 z"
       inkscape:connector-curvature="0" />
    <path
       style="fill:#241c1c;stroke-width:0.26458332"
       id="path3868"
       d="m 10.306185,277.77772 c -0.4870653,-0.21214 -0.9614463,-0.4532 -1.4069617,-0.7429 -0.4620311,-0.2887 -0.8823106,-0.63336 -1.287475,-0.99573 -0.3708217,-0.38036 -0.7900627,-0.70409 -1.2031596,-1.03588 -0.2899717,-0.22115 -0.1461614,-0.11165 -0.4314221,-0.32851 0,0 0.5511818,-0.34803 0.5511818,-0.34803 v 0 c 0.2850359,0.21775 0.1410986,0.10767 0.431805,0.33024 0.4140782,0.33265 0.8337894,0.65756 1.2063227,1.03803 0.4020889,0.36055 0.8209714,0.70168 1.280064,0.98829 0.4436988,0.28424 0.9135859,0.52991 1.4050469,0.72097 0,0 -0.545402,0.37352 -0.545402,0.37352 z"
       inkscape:connector-curvature="0" />
    <path
       style="fill:#241c1c;stroke-width:0.26458332"
       id="path3870"
       d="m 10.43982,280.45042 c -0.5581245,-0.10813 -1.1132957,-0.23031 -1.6660746,-0.36478 -0.5687957,-0.13093 -1.1320565,-0.28729 -1.6932968,-0.44763 -0.5423183,-0.13541 -1.1015657,-0.17832 -1.6493707,-0.28757 -0.3322251,-0.0991 -0.6504069,-0.23584 -0.9738481,-0.35895 0,0 0.5419828,-0.36424 0.5419828,-0.36424 v 0 c 0.3198019,0.1234 0.6353482,0.25889 0.9665213,0.3504 0.5496343,0.10678 1.1105166,0.15145 1.653268,0.2915 0.5598128,0.15949 1.120262,0.31929 1.6879824,0.44806 0.5567637,0.13357 1.1158327,0.25414 1.6782377,0.35969 0,0 -0.545402,0.37352 -0.545402,0.37352 z"
       inkscape:connector-curvature="0" />
    <path
       style="fill:#241c1c;stroke-width:0.26458332"
       id="path3872"
       d="m 6.0459143,281.6363 c -0.4792554,0.24011 -0.8167529,0.33743 -1.35289,0.27762 -0.5529622,-0.12769 -1.0294466,-0.40351 -1.4794095,-0.73866 -0.4724505,-0.43013 -0.8863046,-0.91772 -1.2328351,-1.45364 -0.2694511,-0.40864 -0.4724218,-0.84463 -0.6293829,-1.30665 -0.1408074,-0.43754 -0.2901389,-0.87255 -0.41608682,-1.31469 -0.0626474,-0.30932 -0.19039339,-0.6804 -0.0243779,-0.98155 0.0290004,-0.0526 0.0719785,-0.0962 0.10796772,-0.14429 0.4623016,-0.39852 1.0568991,-0.63463 1.6341247,-0.81978 0.3872963,-0.11616 0.786452,-0.13564 1.183354,-0.0703 0.069524,0.0142 0.139746,0.0254 0.2085705,0.0426 0.041044,0.0103 0.2995734,0.0858 0.350248,0.11898 0.022887,0.0149 0.065749,0.0523 0.044173,0.0691 -0.5484802,0.42686 -0.4501896,0.38535 -0.8683384,0.43759 -0.79879,0.0905 -1.5437805,-0.0659 -2.2884933,-0.34347 -0.63522114,-0.29199 -0.85555876,-0.52882 -1.15967105,-1.12928 -0.20266273,-0.46069 -0.21228002,-0.73944 0.0658609,-1.15933 0.33689472,-0.39054 0.75853815,-0.69612 1.18688025,-0.97835 0.6416444,-0.39973 1.1616696,-0.68989 1.8941096,-0.80782 0.5349825,-0.0962 1.052703,0.0234 1.5700544,0.14996 0.4942816,0.11836 0.9182547,0.38449 1.3192578,0.68597 0.077274,0.0537 0.4551211,0.41377 0.2799794,0.53506 -0.5965439,0.4131 -0.4330761,0.40292 -0.8076258,0.36254 -0.5068139,-0.16317 -0.8478702,-0.49482 -1.1033495,-0.95105 -0.3054403,-0.51349 -0.4054166,-1.07888 -0.4347583,-1.66545 0.00628,-0.51938 0.1195295,-1.0299 0.3299497,-1.50353 0.1142738,-0.22265 0.2986497,-0.39489 0.5199581,-0.51054 0.7879175,-0.41174 0.4960636,-0.3348 0.9957718,-0.42838 0.7790026,-0.0746 1.566306,-0.0889 2.3467517,-0.0339 0.9393746,0.0832 1.7835297,0.46222 2.6177657,0.87042 0.501962,0.28241 0.987998,0.60413 1.416132,0.99046 0,0 -0.553787,0.34307 -0.553787,0.34307 v 0 c -0.42112,-0.38431 -0.902186,-0.70162 -1.39889,-0.97987 -0.8278897,-0.4057 -1.6671364,-0.77842 -2.6008999,-0.85168 -0.7811728,-0.0474 -1.5704828,-0.0372 -2.3481252,0.0564 -0.076265,0.0169 -0.2729979,0.11511 -0.2287953,0.0507 0.084235,-0.12274 0.2504779,-0.16167 0.367818,-0.25327 0.045334,-0.0354 -0.1023848,0.0528 -0.1507914,0.0838 -0.1589339,0.10196 -0.2984434,0.22161 -0.3875481,0.39103 -0.2189756,0.46183 -0.3339947,0.96512 -0.3461549,1.4768 0.024617,0.5778 0.1155602,1.13413 0.4206578,1.63864 0.2361914,0.42055 0.5888617,0.77699 1.0734741,0.89016 0.2983836,-0.0153 0.208901,-0.032 -0.3325606,0.29267 -0.025072,0.015 0.057455,-0.0326 0.062666,-0.0614 0.015124,-0.0835 -0.093875,-0.2095 -0.1342673,-0.25277 -0.047736,-0.0511 -0.1038992,-0.0937 -0.1558488,-0.14051 -0.3959702,-0.29618 -0.815593,-0.55179 -1.3035132,-0.66473 -0.5133282,-0.1246 -1.0270987,-0.23078 -1.5559982,-0.12726 -0.3066063,0.0552 -0.5896973,0.1309 -0.8714385,0.2668 -0.074473,0.0359 -0.284891,0.16491 -0.2212941,0.11207 0.098846,-0.0821 0.2191809,-0.13425 0.3287713,-0.20137 -0.4287005,0.27588 -0.8453813,0.5788 -1.19359831,0.95384 -0.28901808,0.39533 -0.29568917,0.64394 -0.0981112,1.09677 0.28755165,0.57115 0.51664881,0.8242 1.12495081,1.09369 0.7423519,0.27334 1.4858479,0.41775 2.2788795,0.30946 0.067487,-0.0131 0.2455064,-0.0928 0.2024592,-0.0392 -0.4253548,0.52956 -0.2970964,0.33436 -0.5965148,0.23663 -0.1756412,-0.0573 -0.2173147,-0.0595 -0.4003013,-0.0951 -0.3930783,-0.0534 -0.7865296,-0.0258 -1.1662883,0.0957 -0.1943961,0.0651 -0.1808071,0.0577 -0.3761631,0.13517 -0.1930877,0.0766 -0.88032799,0.39828 0.0054,-0.08 0.051284,-0.0277 -0.093327,0.0698 -0.1399902,0.10476 -0.3245029,0.35789 -0.2050757,0.6347 -0.1141153,1.07049 0.1231931,0.44185 0.27611,0.8745 0.4151253,1.31148 0.1528003,0.4577 0.3526883,0.88974 0.6182452,1.29437 0.3409299,0.53031 0.7468025,1.0149 1.2188906,1.43455 0.4444135,0.32495 0.916753,0.59554 1.4630128,0.70734 0.5112438,0.0413 0.8846716,-0.0713 1.3342688,-0.31419 0,0 -0.5133183,0.4153 -0.5133184,0.4153 z"
       inkscape:connector-curvature="0" />
    <path
       style="fill:#241c1c;stroke-width:0.26458332"
       id="path3874"
       d="m 21.941368,278.76579 c 0.781745,-0.0245 1.556448,0.0325 2.329502,0.14555 0.677744,0.10764 1.34783,0.25381 2.029855,0.33373 0.457376,0.0758 0.916491,0.13638 1.378935,0.16957 0.212654,0.0366 0.386768,0.0902 0.40453,0.32292 0,0 -0.59141,0.29937 -0.59141,0.29937 v 0 c 0.03571,-0.19652 -0.204359,-0.21245 -0.347343,-0.24035 -0.461279,-0.0375 -0.918945,-0.10221 -1.375846,-0.17532 -0.679474,-0.085 -1.347329,-0.23437 -2.023583,-0.34 -0.775727,-0.11112 -1.55336,-0.16275 -2.337282,-0.12849 0,0 0.532642,-0.38698 0.532642,-0.38698 z"
       inkscape:connector-curvature="0" />
    <path
       style="fill:#241c1c;stroke-width:0.26458332"
       id="path3876"
       d="m 24.827421,281.4981 c 0.495357,0.21051 0.981459,0.4408 1.465548,0.67621 0.554341,0.29685 1.060341,0.67047 1.538287,1.07671 0.399227,0.38076 0.797073,0.77188 1.122709,1.21869 0,0 -0.562192,0.33243 -0.562192,0.33243 v 0 c -0.320675,-0.44401 -0.715645,-0.83203 -1.114383,-1.20564 -0.472328,-0.4041 -0.972095,-0.77773 -1.525389,-1.0653 -0.487004,-0.23542 -0.977195,-0.46312 -1.477279,-0.66944 0,0 0.552699,-0.36366 0.552699,-0.36366 z"
       inkscape:connector-curvature="0" />
    <path
       style="fill:#241c1c;stroke-width:0.26458332"
       id="path3878"
       d="m 19.930206,281.66587 c 0.613993,0.43159 1.142354,0.95786 1.636779,1.51851 0.457162,0.56748 0.883619,1.15909 1.32336,1.74013 0.353247,0.4793 0.708297,0.95766 1.082091,1.4212 0.34541,0.45828 0.717787,0.89418 1.10592,1.31649 0.327375,0.38269 0.655394,0.76445 0.99801,1.13361 0.0537,0.051 0.107401,0.10189 0.161101,0.15283 0,0 -0.557282,0.34316 -0.557282,0.34316 v 0 c -0.05405,-0.0522 -0.108106,-0.10449 -0.16216,-0.15673 -0.342228,-0.36959 -0.669263,-0.75204 -0.996259,-1.1351 -0.387949,-0.42427 -0.761231,-0.861 -1.107294,-1.32045 -0.37453,-0.46376 -0.729037,-0.94324 -1.081002,-1.42425 -0.43791,-0.58022 -0.860821,-1.17226 -1.317231,-1.73818 -0.489677,-0.55689 -1.015037,-1.08148 -1.637364,-1.49189 0,0 0.551331,-0.35933 0.551331,-0.35933 z"
       inkscape:connector-curvature="0" />
    <path
       style="fill:#241c1c;stroke-width:0.26458332"
       id="path3880"
       d="m 22.562775,280.90308 c 0.636466,0.0803 1.26815,0.21999 1.886784,0.39038 0.325007,0.09 0.664505,0.17003 0.957981,0.34416 0.09527,0.0565 0.272278,0.1972 0.358853,0.2639 0.05297,0.0483 0.10593,0.0967 0.158895,0.14501 0,0 -0.556988,0.34497 -0.556988,0.34497 v 0 c -0.05178,-0.0469 -0.103553,-0.0938 -0.15533,-0.14067 -0.0958,-0.0727 -0.246331,-0.19198 -0.352111,-0.25299 -0.291653,-0.16822 -0.625796,-0.24646 -0.94628,-0.33723 -0.616966,-0.16965 -1.248383,-0.31684 -1.886823,-0.36882 0,0 0.535019,-0.38871 0.535019,-0.38871 z"
       inkscape:connector-curvature="0" />
    <path
       style="fill:#241c1c;stroke-width:0.26458332"
       id="path3882"
       d="m 29.486614,277.36834 c 0.434096,-0.17226 0.869137,-0.31716 1.330211,-0.39442 0.621353,-0.0934 1.060757,-0.0676 1.648079,0.15782 0.56497,0.26975 1.091726,0.6127 1.468935,1.11783 0.228388,0.34061 0.286424,0.7279 0.307747,1.1273 0.02045,0.56257 -0.106968,0.84773 -0.54797,1.19313 -0.651473,0.4172 -1.322618,0.8048 -2.053561,1.06186 -0.406326,0.17627 -0.832734,0.29886 -1.243666,0.46241 0.137326,-0.0687 0.262548,-0.17073 0.41198,-0.20601 0.02894,-0.007 -0.14913,0.10648 -0.129503,0.28726 0.02595,0.23911 0.240551,0.46411 0.378018,0.64204 0.395623,0.42049 0.590457,0.92748 0.701704,1.48311 0.06652,0.47002 0.115075,0.94561 0.0114,1.41172 -0.147993,0.5562 -0.469639,0.87214 -0.924624,1.19523 -0.859136,0.58449 -1.688928,0.76077 -2.691635,0.87061 -0.707515,0.0471 -1.41994,0.0861 -2.1287,0.0469 -0.153081,-0.0162 -0.777039,-0.0904 -0.644143,-0.39789 0.01693,-0.0392 0.05429,-0.0659 0.08143,-0.0988 0.669606,-0.46344 0.95025,-0.5042 1.693,-0.53514 0.484843,0.0163 0.876524,0.21262 1.155887,0.60524 0.167418,0.30533 0.192146,0.65862 0.172493,0.99968 -0.07357,0.40273 -0.309163,0.71108 -0.62371,0.95794 -0.562412,0.43925 -1.200812,0.69764 -1.877865,0.88158 -0.405526,0.0991 -0.82148,0.12858 -1.237187,0.14067 -0.336409,0.006 -0.672905,0.003 -1.009347,0.002 -0.414361,0.0344 -0.786542,-0.0326 -1.169317,-0.1884 -0.310609,-0.12263 -0.573671,-0.32237 -0.828447,-0.53284 0,0 0.554045,-0.34692 0.554045,-0.34692 v 0 c 0.251079,0.2061 0.510822,0.39909 0.817957,0.51541 0.390462,0.15101 0.741091,0.19361 1.15856,0.166 0.335598,0.002 0.671265,0.004 1.006817,-0.003 0.411825,-0.0141 0.823995,-0.0471 1.224479,-0.15064 0.253473,-0.0714 0.503449,-0.14678 0.746347,-0.24985 0.07283,-0.0309 0.278315,-0.14787 0.215119,-0.10028 -0.113897,0.0858 -0.242374,0.15083 -0.369077,0.21622 -0.05645,0.0291 0.105092,-0.0714 0.157638,-0.10709 0.316511,-0.22762 0.559351,-0.51648 0.646909,-0.90634 0.02347,-0.32582 0.0043,-0.666 -0.151677,-0.95998 -0.268052,-0.37797 -0.652013,-0.54981 -1.116169,-0.5529 -0.221038,0.0119 -0.442706,0.0217 -0.660825,0.0629 -0.06238,0.0118 -0.124705,0.0249 -0.185458,0.0433 -0.04947,0.015 -0.186444,0.0866 -0.14434,0.0567 0.138392,-0.0985 0.29056,-0.17614 0.43584,-0.26421 -0.402824,0.26492 0.323865,0.34347 0.479117,0.36735 0.705488,0.0353 1.41423,0.001 2.117998,-0.0523 0.512985,-0.0587 1.022779,-0.12602 1.51252,-0.29818 0.110119,-0.0387 0.238106,-0.20805 0.325067,-0.1302 0.0804,0.072 -0.179054,0.12052 -0.268582,0.18077 0.452266,-0.30849 0.785876,-0.6046 0.940772,-1.15011 0.111881,-0.4569 0.06507,-0.9248 0.0024,-1.38779 -0.104976,-0.54765 -0.295744,-1.04389 -0.685025,-1.45767 -0.172201,-0.22102 -0.495567,-0.55201 -0.391438,-0.86655 0.101357,-0.30618 0.6857,-0.52 0.805159,-0.59416 0.412366,-0.15691 0.833636,-0.28972 1.24165,-0.45856 0.233222,-0.085 0.291616,-0.10084 0.521269,-0.20726 0.0883,-0.0409 0.321767,-0.20648 0.261329,-0.1302 -0.07503,0.0947 -0.210021,0.12022 -0.308676,0.18996 -0.145503,0.10285 0.61155,-0.37368 0.459692,-0.27282 0.447688,-0.31248 0.590203,-0.58136 0.570722,-1.13272 -0.01868,-0.38662 -0.06649,-0.76377 -0.285636,-1.09542 -0.368813,-0.49579 -0.887992,-0.83202 -1.445512,-1.0883 -0.560884,-0.19944 -1.043228,-0.23059 -1.631293,-0.12758 -0.458873,0.0844 -0.896459,0.23177 -1.325621,0.41495 0,0 0.516652,-0.41327 0.516652,-0.41327 z"
       inkscape:connector-curvature="0" />
    <path
       style="fill:#241c1c;stroke-width:0.26458332"
       id="path3884"
       d="m 53.097556,243.03089 c 0.368597,-0.41615 0.804778,-0.7649 1.212882,-1.14014 0.286689,-0.26361 0.566174,-0.53497 0.852173,-0.79933 0.782931,-0.69552 1.564399,-1.39581 2.295713,-2.14606 0.288165,-0.30995 0.154405,-0.15773 0.403344,-0.45484 0,0 0.599199,-0.2546 0.599199,-0.2546 v 0 c -0.250775,0.30292 -0.115779,0.14829 -0.40725,0.4619 -0.732779,0.75483 -1.52183,1.45404 -2.306293,2.15414 -0.686538,0.63313 -1.379598,1.26103 -2.044491,1.91642 0,0 -0.605277,0.26251 -0.605277,0.26251 z"
       inkscape:connector-curvature="0" />
    <path
       style="fill:#241c1c;stroke-width:0.26458332"
       id="path3886"
       d="m 56.394527,244.61252 c 1.466588,0.64642 2.917719,1.32656 4.391207,1.95764 1.894808,0.818 3.801478,1.60687 5.665832,2.49278 0.4346,0.26088 1.454542,0.5609 1.573821,1.1569 0.01093,0.0546 -0.0028,0.11143 -0.0041,0.16715 -0.08112,0.17973 -0.024,0.10073 -0.173299,0.23556 0,0 -0.612365,0.24377 -0.612365,0.24377 v 0 c 0.16035,-0.0994 0.0962,-0.0363 0.196553,-0.1848 0.0065,-0.0478 0.02574,-0.0956 0.01961,-0.14345 -0.06654,-0.51982 -1.14881,-0.91707 -1.518735,-1.13277 -1.85262,-0.8992 -3.751291,-1.69419 -5.644419,-2.50373 -1.484744,-0.63044 -2.946599,-1.31477 -4.441452,-1.92062 0,0 0.547362,-0.36843 0.547362,-0.36843 z"
       inkscape:connector-curvature="0" />
    <path
       style="fill:#241c1c;stroke-width:0.26458332"
       id="path3888"
       d="m 55.928402,248.85912 c 0.568272,1.5646 1.230768,3.09524 1.859296,4.63685 0.88166,2.06472 1.76797,4.12692 2.584974,6.21843 0.09174,0.23021 0.183483,0.46042 0.275227,0.69063 0,0 -0.543771,0.3032 -0.543771,0.3032 v 0 c -0.08955,-0.2316 -0.179091,-0.46321 -0.268637,-0.69482 -0.793784,-2.10104 -1.678784,-4.16452 -2.566868,-6.227 -0.633431,-1.53803 -1.297133,-3.06378 -1.916991,-4.60685 0,0 0.57677,-0.32044 0.57677,-0.32044 z"
       inkscape:connector-curvature="0" />
    <path
       style="fill:#241c1c;stroke-width:0.26458332"
       id="path3890"
       d="m 49.547681,251.8234 c -0.483793,0.79618 -0.861853,1.64858 -1.254794,2.49147 -0.484172,1.05128 -0.952415,2.10705 -1.484767,3.13525 -0.0656,0.12781 -0.131205,0.25562 -0.196805,0.38343 0,0 -0.58497,0.2637 -0.58497,0.2637 v 0 c 0.06696,-0.12851 0.133921,-0.25702 0.200882,-0.38552 0.539181,-1.02563 1.008382,-2.08154 1.490477,-3.13467 0.388533,-0.83743 0.758174,-1.6862 1.229188,-2.48185 0,0 0.600789,-0.27181 0.600789,-0.27181 z"
       inkscape:connector-curvature="0" />
    <path
       style="fill:#241c1c;stroke-width:0.26458332"
       id="path3892"
       d="m 47.887913,246.74062 c -0.627068,0.23572 -1.281877,0.38459 -1.932149,0.54007 -0.867957,0.26479 -1.743964,0.49715 -2.605376,0.78311 -0.63288,0.22367 -1.270256,0.43454 -1.901663,0.6624 0,0 0.509863,-0.39796 0.509863,-0.39796 v 0 c 0.630457,-0.22469 1.265676,-0.4358 1.897345,-0.657 0.863187,-0.28438 1.740517,-0.51823 2.610546,-0.78037 0.653349,-0.15835 1.31499,-0.3061 1.938086,-0.56352 0,0 -0.516652,0.41327 -0.516652,0.41327 z"
       inkscape:connector-curvature="0" />
    <path
       style="fill:#241c1c;stroke-width:0.26458332"
       id="path3894"
       d="m 47.539327,243.49491 c -0.786736,-0.47571 -1.436962,-1.10442 -2.025044,-1.80394 -0.415599,-0.5511 -0.757216,-1.1532 -0.994103,-1.80206 -0.103624,-0.28383 -0.188381,-0.5742 -0.284165,-0.86078 -0.129797,-0.43138 -0.25944,-0.86277 -0.38586,-1.29515 0,0 0.56402,-0.30766 0.56402,-0.30766 v 0 c 0.123417,0.4325 0.251068,0.86368 0.383627,1.29349 0.0944,0.28589 0.176993,0.5758 0.279358,0.85894 0.232547,0.64323 0.568671,1.24119 0.981485,1.78597 0.58715,0.69464 1.237152,1.31895 2.032085,1.77442 0,0 -0.551403,0.35677 -0.551403,0.35677 z"
       inkscape:connector-curvature="0" />
    <path
       style="fill:#241c1c;stroke-width:0.26458332"
       id="path3896"
       d="m 18.884238,242.92449 c 0.523196,-0.57715 1.050965,-1.1498 1.581223,-1.72048 0.88278,-0.98395 1.721282,-2.00225 2.548987,-3.0324 0.857249,-1.05719 1.746711,-2.08791 2.585964,-3.1595 0.125026,-0.16396 0.250052,-0.32792 0.375078,-0.49189 0,0 0.578985,-0.24897 0.578985,-0.24897 v 0 c -0.125182,0.16433 -0.250363,0.32866 -0.375545,0.49299 -0.840242,1.0728 -1.730575,2.10481 -2.590078,3.16214 -0.299274,0.37164 -0.590297,0.74989 -0.890785,1.12056 -0.529774,0.65348 -1.113908,1.26049 -1.646605,1.91172 -0.523485,0.56671 -1.04959,1.13089 -1.556308,1.71278 0,0 -0.610916,0.25305 -0.610916,0.25305 z"
       inkscape:connector-curvature="0" />
    <path
       style="fill:#241c1c;stroke-width:0.26458332"
       id="path3898"
       d="m 16.54336,239.97615 c 0.0037,-0.42483 0.0028,-0.8497 0.0038,-1.27454 0.02628,-0.57389 -0.118121,-1.13216 -0.248336,-1.68591 -0.128873,-0.5168 -0.217174,-1.04088 -0.264626,-1.57103 -0.03562,-0.4399 -0.234458,-0.83119 -0.418945,-1.22362 -0.252793,-0.44659 -0.530842,-0.87605 -0.760867,-1.33549 0,0 0.568216,-0.32354 0.568216,-0.32354 v 0 c 0.229809,0.46 0.504591,0.89195 0.760387,1.33739 0.189589,0.39803 0.394324,0.79572 0.432647,1.24278 0.0422,0.52827 0.125368,1.05118 0.25385,1.56578 0.133476,0.55695 0.283315,1.11945 0.259343,1.69726 0.001,0.42356 1.26e-4,0.84714 0.0038,1.27069 0,0 -0.58924,0.30023 -0.58924,0.30023 z"
       inkscape:connector-curvature="0" />
    <path
       style="fill:#241c1c;stroke-width:0.26458332"
       id="path3900"
       d="m 12.07811,240.79278 c -0.34942,-0.56718 -0.650835,-1.16158 -0.975414,-1.74307 -0.35288,-0.63168 -0.684251,-1.27212 -0.968221,-1.93773 -0.2157349,-0.61627 -0.5109496,-1.19932 -0.749186,-1.80671 -0.1459658,-0.35503 -0.3205556,-0.69769 -0.5008509,-1.03629 0,0 0.5666883,-0.32435 0.5666883,-0.32435 v 0 c 0.179316,0.34201 0.3521045,0.68828 0.5003911,1.04504 0.2365065,0.6074 0.5348205,1.1886 0.7472935,1.80549 0.282938,0.66371 0.609769,1.3038 0.963281,1.93278 0.322609,0.58217 0.624879,1.17639 0.987984,1.73496 0,0 -0.571966,0.32988 -0.571966,0.32988 z"
       inkscape:connector-curvature="0" />
    <path
       style="fill:#241c1c;stroke-width:0.26458332"
       id="path3902"
       d="m 11.255143,242.99705 c -0.55409,0.16505 -1.087514,0.3895 -1.6415593,0.55614 -0.5044977,0.14034 -1.0047713,0.29617 -1.5229692,0.37661 -0.4793493,0.0164 -0.7493621,0.10931 -1.1612887,0.32847 0.1254291,-0.0718 0.5032761,-0.2844 0.3762872,-0.21539 -0.2587411,0.14059 -0.5135491,0.28832 -0.7715914,0.4302 -0.3041015,0.16719 -0.621533,0.31189 -0.9301319,0.47082 0.1621137,-0.1054 -0.6373947,0.34717 -0.4799541,0.25693 0.6515939,-0.37346 0.3356353,-0.1704 -0.4321683,0.24733 -0.1273628,0.0693 -0.2634724,0.12114 -0.394702,0.18279 -0.209355,0.0671 -0.4136038,0.14636 -0.6160238,0.23166 0,0 0.5143775,-0.40545 0.5143775,-0.40545 v 0 c 0.2032995,-0.0825 0.4088217,-0.15783 0.6144506,-0.23428 0.1304385,-0.061 0.5046763,-0.27243 0.3906753,-0.18444 -0.1059521,0.0818 -0.4606234,0.2728 -0.3444878,0.20627 0.4170225,-0.23889 0.8239879,-0.4968 1.2561959,-0.70839 0.23817,-0.12223 0.4784339,-0.23991 0.7173619,-0.36057 0.071909,-0.0363 0.2787525,-0.16 0.2144006,-0.11154 -0.1143569,0.0861 -1.4813881,0.86582 0.3979756,-0.21754 0.3924036,-0.20159 0.724411,-0.28929 1.1703476,-0.30898 0.5146614,-0.0881 1.0142495,-0.24054 1.5161993,-0.38236 0.555082,-0.17027 1.092694,-0.3892 1.644978,-0.56795 0,0 -0.518373,0.40967 -0.518373,0.40967 z"
       inkscape:connector-curvature="0" />
    <path
       style="fill:#241c1c;stroke-width:0.26458332"
       id="path3904"
       d="m 12.324221,245.13521 c -0.06142,0.027 -0.123461,0.0525 -0.184248,0.0809 -0.189818,0.0885 -0.252334,0.12421 -0.437391,0.22701 -0.07702,0.0428 -0.311509,0.16385 -0.230288,0.12971 0.288563,-0.12127 0.5192,-0.31254 0.124449,-0.016 -0.462078,0.39441 -0.847738,0.86465 -1.237649,1.32753 -0.344828,0.42818 -0.6816087,0.86268 -1.0235154,1.29316 -0.3417536,0.44605 -0.7400883,0.83586 -1.167234,1.19835 -0.5619139,0.46847 -1.1246302,0.93551 -1.6725783,1.42034 -0.4260858,0.38771 -0.8511421,0.77739 -1.2491924,1.19406 0,0 -0.6001287,0.25045 -0.6001287,0.25045 v 0 c 0.3967271,-0.42145 0.826843,-0.80951 1.2523854,-1.20148 0.5468839,-0.48472 1.1065346,-0.95402 1.6690064,-1.42048 0.4262713,-0.35912 0.8270518,-0.74114 1.1678724,-1.18484 0.3442296,-0.4298 0.6805113,-0.86585 1.0247747,-1.29564 0.3913929,-0.46363 0.7758679,-0.93524 1.2304999,-1.34002 0.564363,-0.43595 1.203668,-0.77746 1.85161,-1.07276 0,0 -0.518373,0.40968 -0.518373,0.40968 z"
       inkscape:connector-curvature="0" />
    <path
       style="fill:#241c1c;stroke-width:0.26458332"
       id="path3906"
       d="m 15.471961,249.13621 c -0.324273,0.63775 -0.606493,1.29824 -0.882639,1.9584 -0.349297,0.7893 -0.698378,1.578 -1.088959,2.34783 -0.372791,0.74613 -0.809531,1.45674 -1.233157,2.17413 -0.304583,0.47646 -0.554857,0.98274 -0.80542,1.48888 -0.248834,0.50489 -0.556768,0.97704 -0.867353,1.44539 -0.248581,0.35385 -0.500787,0.70502 -0.7495241,1.0588 0,0 -0.5966706,0.25917 -0.5966706,0.25917 v 0 c 0.2500844,-0.35285 0.5022914,-0.70404 0.7512479,-1.05764 0.3114078,-0.46522 0.6159708,-0.9365 0.8686848,-1.43679 0.25066,-0.5089 0.499273,-1.01894 0.80843,-1.49552 0.423262,-0.71805 0.868426,-1.42436 1.23898,-2.17235 0.392065,-0.76804 0.740407,-1.55595 1.091377,-2.34349 0.271713,-0.65908 0.557608,-1.31362 0.861927,-1.95798 0,0 0.603076,-0.26883 0.603076,-0.26883 z"
       inkscape:connector-curvature="0" />
    <path
       style="fill:#241c1c;stroke-width:0.26458332"
       id="path3908"
       d="m 19.089393,249.9903 c 0.507322,1.12615 0.960542,2.27545 1.446708,3.41071 0.402612,1.07298 0.89397,2.10687 1.361296,3.15205 0.201144,0.48607 0.359028,0.98785 0.539088,1.48156 0,0 -0.570021,0.3159 -0.570021,0.3159 v 0 c -0.178285,-0.49335 -0.33211,-0.99541 -0.529013,-1.48214 -0.458949,-1.04985 -0.942139,-2.08869 -1.343749,-3.16278 -0.484821,-1.13327 -0.939919,-2.27945 -1.473541,-3.39119 0,0 0.569232,-0.32411 0.569232,-0.32411 z"
       inkscape:connector-curvature="0" />
    <path
       style="fill:#241c1c;stroke-width:0.26458332"
       id="path3910"
       d="m 21.549843,246.00265 c 1.085391,0.69389 2.185262,1.36207 3.261251,2.07183 1.313809,0.85382 2.547645,1.828 3.724888,2.86056 0.464658,0.4454 0.98295,0.83222 1.454266,1.26984 0.05635,0.0523 0.430776,0.43519 0.49298,0.4986 0.277534,0.30663 0.147388,0.15343 0.39198,0.45828 0,0 -0.558731,0.33384 -0.558731,0.33384 v 0 c -0.239681,-0.30221 -0.111655,-0.15025 -0.385797,-0.4544 -0.610455,-0.62756 -1.278229,-1.18942 -1.930022,-1.77356 -1.166244,-1.03856 -2.394897,-2.01296 -3.70756,-2.86092 -1.0844,-0.70636 -2.186805,-1.37913 -3.294656,-2.0473 0,0 0.551401,-0.35677 0.551401,-0.35677 z"
       inkscape:connector-curvature="0" />
    <path
       style="fill:#241c1c;stroke-width:0.26458332"
       id="path3912"
       d="m 21.468528,243.95965 c 0.05909,-0.0324 0.235261,-0.13154 0.177287,-0.0972 -0.113161,0.0671 -0.226406,0.13423 -0.342896,0.19533 -0.0939,0.0493 0.182846,-0.10743 0.275068,-0.15975 0.517559,-0.29364 1.03985,-0.57771 1.557217,-0.87141 0.628823,-0.37441 1.289797,-0.68917 1.960093,-0.98106 0.512261,-0.2033 0.992215,-0.47835 1.501072,-0.68907 0.262048,-0.10851 0.52942,-0.20376 0.792583,-0.30955 0.515519,-0.20437 1.05039,-0.35268 1.577134,-0.52399 0,0 -0.51503,0.39923 -0.51503,0.39923 v 0 c -0.524717,0.16652 -1.05513,0.31784 -1.56708,0.52189 -0.262998,0.10497 -0.529441,0.20143 -0.790393,0.3114 -0.508723,0.21437 -0.991923,0.4858 -1.50482,0.69106 -0.668225,0.29426 -1.326663,0.61128 -1.954661,0.98515 -0.05062,0.0285 -0.637707,0.36176 -0.688207,0.38104 -0.0871,0.0333 0.326647,-0.17547 0.237736,-0.14739 -0.09985,0.0315 -0.180923,0.10549 -0.271492,0.15806 -0.823598,0.47798 -0.516655,0.30969 -0.960262,0.54951 0,0 0.516651,-0.41327 0.516651,-0.41327 z"
       inkscape:connector-curvature="0" />
  </g>
</svg>
